<?xml version="1.0" encoding="utf-8"?>
<!-- Generator: Adobe Illustrator 22.1.0, SVG Export Plug-In . SVG Version: 6.00 Build 0)  -->
<svg version="1.1" id="Layer_1" xmlns="http://www.w3.org/2000/svg" xmlns:xlink="http://www.w3.org/1999/xlink" x="0px" y="0px"
	 viewBox="0 0 612 612" style="enable-background:new 0 0 612 612;" xml:space="preserve">
<style type="text/css">
	.st0{fill:#2C3178;}
	.st1{fill:#FFFFFF;}
	.st2{fill:#F4B02A;}
</style>
<g>
	<g>
		<circle class="st0" cx="304.2" cy="308.3" r="229.8"/>
		<g>
			<path class="st1" d="M220.8,204.7l-10.1,9.2l3,6.7l-7.1,6.5l-15.7-38.5l6.5-5.9l37,19.2l-7.1,6.5L220.8,204.7z M213.7,200.6
				l-12-6.8l-0.1,0.1l5.7,12.6L213.7,200.6z"/>
			<path class="st1" d="M231.3,185.2l-9.7-20.6l8.4-4l9.4,20.1c2,4.3,5.8,7,9.9,5.1c3.6-1.7,4.9-5.9,2.6-10.9l-9.4-20.1l8.4-3.9
				l9.7,20.6c4.3,9.2,1.9,17.7-7.5,22.1C244.4,197.7,235.9,195,231.3,185.2z"/>
			<path class="st1" d="M273.5,179.1l4.5-7.3c3.4,2.8,7,3.8,9.7,3.5c3.2-0.4,4.2-2,4-3.7c-0.3-2.1-1.8-2.9-6.4-3.8
				c-6.2-1.3-12.3-3.3-13.3-10.9c-0.8-6.4,4.2-12.1,11.2-13.1c5.1-0.7,9.9,0.6,14.1,3.3l-4.3,7.4c-3.6-2.2-6.3-3-8.4-2.7
				c-2.2,0.3-3.4,1.6-3.2,3.5c0.2,1.8,1.7,2.4,6.2,3.5c7.2,1.7,12.6,2.9,13.5,10.5c1.2,9.1-6.3,13.5-12.5,14.3
				C283.6,184.1,278.2,182.8,273.5,179.1z"/>
			<path class="st1" d="M321.6,151.9l-10.2-1.4l1.1-8.1l29.5,4.2l-1.1,8.1l-10.2-1.4l-4.3,30.6l-9-1.3L321.6,151.9z"/>
			<path class="st1" d="M356.8,151.3l8.7,3.2L352,191.2l-8.7-3.2L356.8,151.3z"/>
			<path class="st1" d="M414.2,183.8l-22.9,31.6l-7.7-5.5l1.7-27.7l0,0l-13.7,19l-7.4-5.4l22.9-31.6l7.4,5.4l-1.8,28.4l14.1-19.5
				L414.2,183.8z"/>
			<path class="st1" d="M427.3,229.2c10.1-4.8,21.4-2.1,26.9,9.6c2.3,4.8,2.8,11.3-0.1,17.4l-8.1-3.7c1.2-2.7,1.9-6.6,0.2-10
				c-2.4-5.2-8.3-7.7-14.8-4.6c-5.6,2.6-8.3,8.5-5.6,14.2c1.5,3.2,4.6,5.4,7.9,6.2l-2.3,8.6c-5.2-1.2-10.5-4.8-13.5-11
				C413.3,246.1,415.6,234.7,427.3,229.2z"/>
			<path class="st1" d="M446.7,275.2c11.7-0.9,20.7,6.6,21.6,18.5c0.9,11.6-6.5,20.6-18.4,21.5c-11.9,0.9-20.7-6.7-21.6-18.4
				C427.4,284.9,435,276.1,446.7,275.2z M449.1,305.6c6.5-0.5,11.1-5.3,10.6-11.3c-0.5-6.2-5.9-10.1-12.3-9.6
				c-6.4,0.5-11.1,5.2-10.6,11.4C437.3,302.2,442.7,306.2,449.1,305.6z"/>
			<path class="st1" d="M466.8,333.7l-3.5,13.1c-3.2,11.9-13,17.4-24.2,14.4c-11.1-3-16.9-12.3-13.5-24.5l3.6-13.2L466.8,333.7z
				 M433.6,338.3c-1.8,6.5,1.9,12,8,13.7c6.3,1.7,12.2-1.3,13.7-7.1l1.2-4.5l-21.9-5.9L433.6,338.3z"/>
			<path class="st1" d="M450.1,381.7l-4.5,8.1L411.4,371l4.5-8.1L450.1,381.7z"/>
			<path class="st1" d="M412.9,430.5l-28.6-26.6l6.4-6.9l27.3,5.1l0,0l-17.1-16l6.3-6.7l28.6,26.6l-6.3,6.7l-27.9-5.3l17.6,16.4
				L412.9,430.5z"/>
			<path class="st1" d="M388.1,425.5c5.3,10,2.9,21.2-8.1,27c-5,2.6-11.5,3.4-17.2,1.2l3.2-7.9c2.7,0.8,6.3,1,10-0.9
				c4.9-2.6,7-8.5,3.6-14.9c-3-5.6-8.9-8.3-14.7-5.2c-2,1.1-3.7,2.5-5.1,4.6l2.1,3.9l6.6-3.5l3.6,6.9l-14.4,7.6l-8.2-15.5
				c1.8-4,6.1-8.7,11.5-11.5C370.9,412,382.1,414.3,388.1,425.5z"/>
			<path class="st1" d="M301.7,438.5l13.7-0.4l2-7l9.6-0.3l-13.1,39.5l-8.8,0.3l-15.6-38.6l9.6-0.3L301.7,438.5z M304.4,446.2
				l4.7,13l0.1,0l3.8-13.3L304.4,446.2z"/>
			<path class="st1" d="M282.5,450.1c-3,10.8-12.4,17.5-24.8,14c-5.1-1.4-10.4-5.2-13.1-11.5l8.1-3.7c1.2,2.7,3.7,5.7,7.4,6.8
				c5.5,1.5,11.3-1.2,13.2-8.2c1.7-5.9-1-11.8-7.1-13.5c-3.4-1-7.1-0.1-9.8,1.9l-5-7.4c4.4-3.1,10.5-4.8,17.2-3
				C278.9,428.4,286,437.7,282.5,450.1z"/>
			<path class="st1" d="M225.3,412l11.4,7.6l5.8-4.5l8,5.4l-33.7,24.4l-7.3-4.9l9.8-40.5l8,5.4L225.3,412z M223,419.9l-3.8,13.3
				l0.1,0.1l10.8-8.5L223,419.9z"/>
			<path class="st1" d="M184.8,419.5l-8.3-10.7c-7.6-9.8-6-20.9,3.1-28c9.1-7,20-6,27.7,4l8.4,10.8L184.8,419.5z M201.2,390.3
				c-4.1-5.3-10.7-5.8-15.7-1.9c-5.2,4-6.3,10.5-2.6,15.2l2.9,3.7l17.9-13.8L201.2,390.3z"/>
			<path class="st1" d="M155.7,376l-9-23.8l7.7-2.9l5.8,15.4l7-2.6l-4.6-12.1l7.6-2.9l4.6,12.1l6.6-2.5l-6.2-16.5l7.7-2.9l9.4,24.9
				L155.7,376z"/>
			<path class="st1" d="M140.7,287.1l39.1-0.1l0,9.1l-21.6,0.1v0.1l14.4,7.9l0,5.9l-14.3,8v0.1l21.5-0.1l0,9.1l-39.1,0.1l0-9.2
				l20.6-10.9V307l-20.7-10.7L140.7,287.1z"/>
			<path class="st1" d="M157.6,232.2l16.1,19.8l15.9,6l-3.3,8.7l-15.9-6l-25.1,4.1l3.7-9.8l14.5-1.8l0.1-0.2l-9.7-10.9L157.6,232.2z
				"/>
		</g>
		<g>
			<path class="st2" d="M304.5,409c-55.7,0-101.1-45.3-101.1-101.1c0-34.9,17.7-66.9,47.3-85.5l7.9,12.6
				c-25.3,15.9-40.3,43.2-40.3,73c0,47.5,38.7,86.2,86.2,86.2c47.5,0,86.2-38.7,86.2-86.2c0-29.8-15.1-57.1-40.3-73l7.9-12.6
				c29.6,18.6,47.3,50.6,47.3,85.5C405.6,363.6,360.2,409,304.5,409z"/>
			<path class="st2" d="M304.2,511.8c-112.2,0-203.5-91.3-203.5-203.5c0-112.2,91.3-203.5,203.5-203.5S507.7,196,507.7,308.2
				C507.7,420.5,416.4,511.8,304.2,511.8z M304.2,119.7c-104,0-188.5,84.6-188.5,188.5c0,104,84.6,188.5,188.5,188.5
				s188.5-84.6,188.5-188.5C492.7,204.3,408.1,119.7,304.2,119.7z"/>
		</g>
		<polygon class="st2" points="304.8,207 309.8,222.2 325.9,222.2 312.9,231.7 317.8,247 304.8,237.5 291.8,247 296.8,231.7 
			283.8,222.2 299.9,222.2 		"/>
	</g>
	<g>
		<g>
			<path class="st1" d="M269.2,321.2h-13.9l-2.3,7.1h-9.8l14.6-39.8h9l14.7,39.8h-9.8L269.2,321.2z M266.6,313.2l-4.4-13.4h-0.1
				l-4.3,13.4H266.6z"/>
			<path class="st1" d="M287.9,308.5c0-11.4,7.4-20.6,20.5-20.6c5.4,0,11.6,2.3,16,7.7l-6.9,5.8c-1.9-2.3-5.2-4.6-9.1-4.6
				c-5.8,0-10.7,4.3-10.7,11.6c0,6.3,4.3,11.3,10.7,11.3c3.6,0,7-1.9,9.1-4.5l6.9,5.9c-3.4,4.3-9,7.6-16,7.6
				C297.4,328.8,287.9,321.7,287.9,308.5z"/>
			<path class="st1" d="M355.8,321.2h-13.9l-2.3,7.1h-9.8l14.6-39.8h9l14.7,39.8h-9.8L355.8,321.2z M353.2,313.2l-4.4-13.4h-0.1
				l-4.3,13.4H353.2z"/>
		</g>
	</g>
</g>
</svg>
